<svg width="20" height="20" viewBox="0 0 20 20" fill="none" xmlns="http://www.w3.org/2000/svg">
<g clip-path="url(#clip0_528_4422)">
<g clip-path="url(#clip1_528_4422)">
<mask id="mask0_528_4422" style="mask-type:luminance" maskUnits="userSpaceOnUse" x="4" y="0" width="13" height="20">
<path d="M4.6875 0.25769H16.9424V19.671H4.6875V0.25769Z" fill="white"/>
</mask>
<g mask="url(#mask0_528_4422)">
<path d="M8.51061 7.81397C8.68963 7.36141 8.91063 6.92645 9.17036 6.51939C7.99494 7.74383 7.53886 9.47337 7.18813 11.1366C7.20194 9.7786 7.54942 8.42795 8.18805 7.23168C8.01255 7.40014 7.83705 7.56481 7.66155 7.73326C7.94944 7.16506 8.34594 6.65616 8.8264 6.2388C8.12115 6.32656 7.42674 6.50178 6.76347 6.76503C7.11094 6.49826 7.45815 6.23528 7.80915 5.97203C7.45111 5.99668 7.0863 5.95091 6.74586 5.83174C6.89319 5.78272 7.03728 5.72991 7.18109 5.68089C6.86882 5.6668 6.55655 5.61426 6.25836 5.52299C6.37753 5.47749 6.49697 5.4282 6.61613 5.3827C6.27597 5.35805 5.93553 5.28791 5.6127 5.17226C5.83017 5.13001 6.05117 5.11593 6.27245 5.12297C5.91088 5.01437 5.54959 4.90197 5.1883 4.79337C5.32507 4.75464 5.46184 4.71266 5.59861 4.67393C5.31451 4.67745 5.03392 4.53364 4.87251 4.29855C4.98463 4.30912 5.09703 4.31616 5.2059 4.32672C4.9952 4.07755 4.93913 3.7057 5.06886 3.40399C4.95674 3.50908 4.84786 3.61795 4.73926 3.7233C4.86547 3.39695 5.0304 3.08116 5.2338 2.79353C5.11463 2.86016 4.9952 2.92678 4.87955 2.99341C5.16013 2.30224 5.52847 1.6322 6.0723 1.11978C6.61261 0.604116 7.34251 0.256908 8.08974 0.291845C6.96361 0.526929 5.96017 1.28824 5.43042 2.30928C5.63734 2.16195 5.84074 2.01462 6.04792 1.86728C5.84074 2.17603 5.63734 2.48478 5.43042 2.79001C5.53551 2.80058 5.63734 2.80735 5.73917 2.81439C5.23732 3.02157 5.12167 3.7512 5.4269 4.20376C5.72861 4.6528 6.30738 4.84239 6.85122 4.85647C6.6443 4.90197 6.43711 4.94774 6.2302 4.99324C6.42682 5.12649 6.67219 5.18255 6.90728 5.14762C6.86882 5.21424 6.83361 5.28439 6.79515 5.35101C6.89319 5.44228 7.04757 5.35453 7.18109 5.33693C7.31434 5.3196 7.43703 5.54412 7.30026 5.55116C7.67211 5.52299 8.04397 5.49835 8.41609 5.47045C8.24059 5.57201 8.06861 5.67385 7.89311 5.77568C8.39144 5.67033 8.88599 5.56497 9.38432 5.45989C8.86865 5.69849 8.35624 5.9371 7.84057 6.17543C8.30017 6.1088 8.75978 6.03866 9.21586 5.97203C9.32474 5.95795 9.45447 5.92301 9.47911 5.81766C9.58419 5.37214 9.87886 4.97212 10.2718 4.73703C9.4263 4.77928 8.58428 4.97564 7.80563 5.31255C8.41257 4.84591 9.16684 4.56858 9.93519 4.53012C9.28601 4.46349 8.64061 4.39687 7.99494 4.33376C8.51061 4.22489 9.0474 4.21785 9.56686 4.30208C8.81232 4.01445 7.99847 3.88445 7.19165 3.93022C7.49336 3.78641 7.83353 3.71978 8.16692 3.74416C7.77394 3.66697 7.38449 3.58978 6.99151 3.51612C7.16349 3.41455 7.38097 3.40047 7.55999 3.47766C7.59492 2.9303 8.04397 2.43901 8.58428 2.35478C8.28609 2.33745 7.9879 2.31632 7.68619 2.29872C8.48272 1.89518 9.45799 2.29872 10.1562 2.85312C10.8544 3.40399 11.4543 4.11953 12.2787 4.45997C12.321 3.81078 12.2156 3.15482 11.977 2.55493C12.3982 3.13018 12.598 3.8636 12.5314 4.5721C12.8296 4.25983 13.0192 3.84599 13.0612 3.41455C13.1874 3.85303 13.0576 4.35814 12.7383 4.68449C12.9523 4.9862 13.4471 4.9407 13.7171 4.68449C13.9874 4.4318 14.0857 4.04939 14.1629 3.6881C14.1664 3.91966 14.1697 4.15122 14.1732 4.3863C14.3417 4.01093 14.5101 3.63908 14.6786 3.2637C14.6962 3.78289 14.489 4.3056 14.1207 4.67393C14.3839 4.62491 14.6469 4.57914 14.9137 4.53012C15.2013 4.4811 15.5417 4.44589 15.7451 4.65633C15.9626 4.88437 15.8854 5.25297 15.8188 5.56172C15.7522 5.87372 15.7557 6.27374 16.0398 6.41403C16.8469 5.43172 16.8748 3.88797 16.1029 2.87776C16.6291 3.30216 16.9273 3.98628 16.924 4.66689C16.924 5.34397 16.6326 6.01076 16.173 6.50883C15.9802 6.71574 16.2294 7.1052 16.0398 7.31591C15.8713 7.5017 15.9767 7.80341 16.124 8.00356C16.2678 8.20695 16.4609 8.41387 16.4468 8.66656C16.3975 9.56464 16.5519 10.4768 16.8924 11.3153C16.794 11.2311 16.696 11.1506 16.5942 11.0664C16.6538 11.3611 16.7133 11.6557 16.7729 11.9504C16.6749 11.7925 16.573 11.6346 16.4747 11.4732C16.5977 11.8486 16.5766 12.2732 16.4116 12.631C16.4222 12.3575 16.4011 12.0837 16.3485 11.8136C16.3204 12.3187 16.1942 12.8206 15.9767 13.2767C16.0327 12.9574 16.0468 12.631 16.0257 12.3047C15.9555 12.7995 15.7698 13.2767 15.4924 13.694C15.5872 13.368 15.6503 13.031 15.689 12.6941C15.5135 13.2274 15.2259 13.7292 14.8541 14.1466C15.0399 13.7853 15.1802 13.3994 15.2679 13.0029C15.0575 13.466 14.7452 13.8836 14.3593 14.2203C14.5488 13.8801 14.7382 13.5432 14.9277 13.2065C14.7135 13.417 14.4995 13.6309 14.2856 13.8449C14.6434 13.3046 14.938 12.7223 15.1628 12.1118C14.9732 12.3469 14.7872 12.582 14.5979 12.8171C14.8608 12.3363 15.0469 11.8136 15.1452 11.2733C14.3381 12.6697 13.8644 14.259 13.7805 15.8694C13.9487 15.7957 14.1171 15.7256 14.2856 15.6519C14.5031 16.1957 13.5172 16.6867 13.7453 17.2271C13.9804 17.7885 13.6226 18.4306 13.1665 18.8339C12.4648 19.4444 11.4963 19.7355 10.5771 19.6128C9.65786 19.4901 8.79851 18.9534 8.28609 18.178C8.35272 18.2235 8.27905 18.3429 8.19834 18.3323C8.11438 18.3253 8.06157 18.2481 8.01607 18.1815C7.84409 17.9217 7.67211 17.6588 7.50392 17.399C7.53534 17.5781 7.56703 17.7568 7.60197 17.9394C7.15645 17.5252 6.88642 16.9324 6.8653 16.329C7.01967 16.6483 7.17053 16.9676 7.3249 17.2866C7.27561 17.0656 7.27236 16.8376 7.31082 16.6166C7.41617 16.9849 7.61605 17.3289 7.8793 17.606C7.65803 17.1393 7.52478 16.6307 7.48984 16.115C7.79507 16.9042 8.11086 17.7078 8.65794 18.3499C9.2053 18.9953 10.0368 19.462 10.8753 19.3498C10.1072 19.1603 9.27544 18.9322 8.79499 18.3042C9.93872 18.9777 11.3595 19.1638 12.64 18.8095C11.8578 18.8374 11.0613 18.8131 10.3211 18.5674C9.57715 18.3182 8.88951 17.8234 8.56342 17.1114C9.56334 18.055 10.9492 18.578 12.3245 18.5252C12.7069 18.5111 13.1137 18.4445 13.3945 18.185C13.6751 17.9253 13.7523 17.4202 13.4647 17.171C13.4926 17.385 13.3382 17.5919 13.1419 17.6867C12.9488 17.7815 12.7242 17.792 12.5068 17.7885C11.7314 17.7779 10.9595 17.6482 10.2228 17.4026C9.73505 17.2411 9.25107 17.0237 8.89303 16.6553C8.61597 16.3674 8.42638 16.0026 8.28257 15.6272C7.79507 14.3608 7.78803 12.9679 7.78803 11.6102C7.64069 12.7995 7.49688 13.9887 7.34955 15.1782C7.2618 14.3538 7.25124 13.5223 7.32138 12.6976C7.17757 13.0134 7.03376 13.3257 6.88995 13.6415C7.0863 12.2556 7.65478 10.9226 8.52117 9.82085C8.9564 9.26997 9.46855 8.77191 10.0755 8.42091C11.3665 7.6772 12.9875 7.66664 14.4118 8.10864C15.11 8.32612 15.8047 8.6736 16.2364 9.26645C16.3415 8.71558 16.1029 8.13681 15.7134 7.73326C15.324 7.32972 14.8048 7.07731 14.2715 6.90181C13.5909 6.67376 12.8716 6.5546 12.1525 6.54755C11.8578 6.54755 11.5597 6.56137 11.2788 6.47037C11.0017 6.38262 10.7455 6.15105 10.7244 5.85991C10.6965 5.47749 11.1 5.16874 11.4825 5.17578C11.8684 5.1793 12.2121 5.4106 12.4962 5.6668C12.7841 5.92301 13.04 6.21768 13.3769 6.40699C13.9804 6.74743 14.7977 6.65616 15.3137 6.19303C15.503 6.49122 15.5312 6.8842 15.3838 7.20351C15.4819 7.30887 15.6154 7.37549 15.7557 7.3931C15.9696 7.23168 15.9241 6.9018 15.8434 6.6456C15.7381 6.30543 15.5907 5.95091 15.2996 5.74399C15.0084 5.53708 14.5383 5.54764 14.3522 5.85287C14.1171 6.23176 13.5032 6.07035 13.212 5.73695C12.9173 5.4003 12.7524 4.94422 12.3805 4.69858C11.9385 4.40391 11.3454 4.49843 10.8474 4.69153C10.4438 4.84943 10.0438 5.08099 9.80872 5.44933C9.57715 5.81414 9.55982 6.34741 9.86857 6.65616C9.76322 6.67376 9.65786 6.56841 9.67194 6.46333C9.21938 6.85278 8.8264 7.30887 8.51061 7.81397ZM14.1697 11.0523C14.275 11.0347 14.3874 11.0136 14.489 11.0523C14.5908 11.0908 14.6715 11.2067 14.6328 11.305C14.5556 11.2067 14.4118 11.168 14.2962 11.2173C14.3032 11.3329 14.4364 11.4101 14.5556 11.3995C14.6715 11.3855 14.7734 11.3118 14.8679 11.2416C14.882 11.2311 14.8996 11.2173 14.9137 11.2067C14.7558 11.2243 14.5943 11.1119 14.5627 10.9575C14.5418 10.8663 14.5591 10.7715 14.5312 10.684C14.4995 10.5998 14.3804 10.5331 14.3173 10.5998C14.2856 10.7577 14.2366 10.9085 14.1697 11.0523ZM9.88238 13.9047C9.86153 13.4766 9.79842 12.982 9.42982 12.7643C9.86153 13.368 9.54926 14.2135 9.72124 14.9361C9.74209 15.0309 9.88942 15.1292 9.91055 15.0309C9.86505 14.922 9.86505 14.7993 9.90703 14.6904C9.95957 14.7887 10.0124 14.8871 10.0649 14.9818C10.2683 14.873 10.472 14.7606 10.6754 14.652C10.7279 14.6203 10.7878 14.5924 10.8474 14.5994C10.9422 14.6097 11.0053 14.708 11.0088 14.8028C11.0158 14.8976 10.9736 14.9851 10.9351 15.0728C10.8403 15.2836 10.7455 15.4905 10.6507 15.7009C11.135 15.9536 11.6718 16.1009 12.2156 16.1291C11.7736 16.2902 11.2718 16.1711 10.8579 15.9466C10.7244 15.8729 10.5421 15.7922 10.4368 15.9011C10.8614 16.1992 11.3736 16.3674 11.8928 16.3815C12.149 16.3886 12.4366 16.3395 12.598 16.1394C12.8296 15.8553 12.6893 15.4379 12.647 15.0693C12.5699 14.4028 12.8648 13.7011 12.647 13.0627C12.4472 12.4802 11.7912 12.0942 11.184 12.2031C11.5139 12.8241 11.6052 13.5713 11.4332 14.252C11.1596 13.7468 11.4892 13.0522 11.1772 12.5644C10.7244 12.2944 10.2017 12.14 9.67194 12.1259C10.1175 11.9084 10.693 12.0065 11.0437 12.354C11.1139 12.2732 11.0193 12.1503 10.9281 12.0942C10.3702 11.74 9.56686 11.8451 9.11755 12.3293C9.75617 12.5013 10.1421 13.2943 9.88238 13.9047ZM10.7702 8.87699C10.7981 9.24533 10.8262 9.61745 10.8544 9.98931C10.6895 9.79268 10.5912 9.54026 10.5806 9.28406C10.5069 9.38237 10.5421 9.51914 10.5771 9.63478C10.7141 10.0524 10.8474 10.4698 10.9841 10.8874C11.0332 10.9399 11.1068 10.8592 11.1315 10.7926C11.184 10.6453 11.2403 10.4944 11.2929 10.3471C11.4825 9.82437 11.6753 9.27349 11.5805 8.72614C11.5561 8.58233 11.5068 8.43499 11.4053 8.32612C11.3034 8.22103 11.142 8.16145 11.0053 8.21399C10.8858 8.25949 10.8086 8.37893 10.7807 8.50162C10.749 8.62106 10.7596 8.75078 10.7702 8.87699ZM9.48615 15.2906C9.41249 15.3009 9.31065 15.3537 9.34234 15.4203C9.49997 15.3746 9.65434 15.3291 9.81224 15.2836C9.83688 15.273 9.86857 15.266 9.88942 15.2836C9.94576 15.3185 9.87209 15.3992 9.80872 15.4238C9.65786 15.4799 9.50701 15.5395 9.35615 15.5958C9.21938 15.6484 9.07205 15.7115 9.00542 15.8447C8.93176 15.9956 9.00894 16.1957 9.14924 16.2867C9.29305 16.3815 9.47911 16.385 9.64405 16.3395C9.80519 16.2902 9.9528 16.1957 10.0966 16.1045C10.1982 16.0378 10.3141 15.9571 10.3352 15.8342C10.2859 15.8658 10.2123 15.8553 10.1738 15.8098C10.5175 15.5465 10.7631 15.1465 10.8403 14.7186C10.4473 15.0168 9.97717 15.2167 9.48615 15.2906ZM13.5172 8.12976C13.3174 8.12976 13.1383 8.2771 12.942 8.25949C12.7665 8.24893 12.6227 8.11216 12.4507 8.08778C12.2893 8.06314 12.1279 8.14033 11.9664 8.17526C11.8015 8.21047 11.6263 8.20343 11.4684 8.15441C11.6052 8.35428 11.7105 8.57881 11.7736 8.81389C11.8752 8.58585 12.0366 8.36485 12.2752 8.29118C12.5138 8.22103 12.8225 8.37541 12.8296 8.62458C13.0121 8.45612 13.2331 8.31583 13.482 8.30526C13.7277 8.29822 13.9909 8.46316 14.0223 8.70854C14.2609 8.47697 14.71 8.52626 14.896 8.80333C14.9486 8.88051 15.0328 8.98939 15.1135 8.93658C15.2433 8.84206 15.4364 8.92981 15.5135 9.0701C15.5872 9.21039 15.5802 9.37885 15.5696 9.54026C15.6785 9.42083 15.8364 9.34364 15.9978 9.32956C15.8012 9.23503 15.6433 9.07362 15.5555 8.87347C15.4645 8.6736 15.0994 8.82093 14.9592 8.64543C14.8083 8.45612 14.5488 8.35429 14.3067 8.38949C14.0294 8.43147 13.7978 8.13328 13.5172 8.12976ZM10.1982 16.9359C9.96661 16.9465 9.78434 16.6624 9.8859 16.4587C9.72124 16.4693 9.5563 16.4798 9.39136 16.4904C9.28953 16.4974 9.18444 16.501 9.08965 16.4622C8.95288 16.4026 8.87217 16.2518 8.85457 16.1045C8.83344 15.9571 8.86865 15.8098 8.90007 15.6625C8.8088 15.6202 8.72836 15.7396 8.7178 15.8377C8.66851 16.2271 8.97726 16.6272 9.36672 16.6762C9.62292 16.7079 9.76674 17.0201 10.0194 17.0727C10.128 17.0973 10.2404 17.0692 10.349 17.0868C10.5806 17.1185 10.7561 17.343 10.9877 17.3535C11.1209 17.3571 11.2509 17.2902 11.3806 17.3218C11.4754 17.343 11.5491 17.4131 11.6404 17.4445C11.7173 17.4727 11.798 17.4727 11.8787 17.4727C12.2646 17.4727 12.6506 17.4692 13.0365 17.4692C13.0157 17.3042 12.7841 17.2831 12.6192 17.3078C12.4542 17.3359 12.2191 17.3042 12.2121 17.1393C12.1208 17.2658 11.9559 17.3324 11.8015 17.3078C11.6507 17.2799 11.5174 17.1569 11.4754 17.0061C11.3246 17.0973 11.1561 17.1816 10.9806 17.164C10.8051 17.1463 10.6369 16.9746 10.6859 16.8062C10.5175 16.7956 10.3666 16.9324 10.1982 16.9359ZM15.7451 11.3083C15.7099 11.2557 15.724 11.1856 15.7381 11.1225C15.8082 10.7891 15.8819 10.4595 15.9555 10.1261C16.0433 10.2417 16.0257 10.4067 16.0013 10.554C15.9767 10.7189 15.9485 10.8874 15.9241 11.0523C16.1871 10.6033 16.1977 10.0207 15.952 9.56112C15.9136 9.49097 15.8012 9.51914 15.7416 9.5752C15.559 9.74014 15.5382 10.0137 15.552 10.2558C15.5696 10.4979 15.6048 10.7541 15.503 10.9751C15.4645 10.9646 15.4223 10.9505 15.3838 10.9364C15.3557 11.2698 15.3275 11.5997 15.2996 11.9293C15.2961 11.9821 15.2961 12.0417 15.3345 12.0698C15.4889 11.8767 15.6224 11.6663 15.731 11.4453C15.7522 11.3995 15.7698 11.347 15.7451 11.3083ZM9.62997 9.00347C9.45094 9.12616 9.25811 9.26997 9.2053 9.48393C9.17036 9.62774 9.20882 9.7786 9.25811 9.91916C9.26515 9.94001 9.27544 9.96114 9.29305 9.97874C9.36319 10.0383 9.45447 9.92268 9.46151 9.82789C9.57715 9.83141 9.65786 9.94353 9.76674 9.98931C9.94576 10.07 10.1668 9.9262 10.2193 9.74014C10.2754 9.55056 10.2052 9.34364 10.0931 9.18222C9.98774 9.03137 9.78082 8.8946 9.62997 9.00347ZM13.8577 9.22095C13.998 8.98235 13.8926 8.63135 13.6399 8.51922C13.3875 8.40331 13.0541 8.55416 12.9699 8.81741C12.9488 8.87347 12.942 8.93658 12.9349 8.99995C12.9314 9.03841 12.9244 9.08066 12.9452 9.1156C12.9769 9.17518 13.0576 9.18574 13.1278 9.18926C13.3699 9.19983 13.6155 9.21039 13.8577 9.22095ZM12.0577 9.09095C12.0122 9.03489 11.9629 8.97883 11.9174 8.92276C11.9104 9.06658 11.9385 9.21039 12.0017 9.34012C12.0228 9.38237 12.0507 9.42787 12.0964 9.43843C12.1945 9.46308 12.2508 9.32251 12.3418 9.27701C12.4296 9.23503 12.542 9.28758 12.6365 9.25237C12.763 9.20335 12.777 9.03137 12.77 8.8946C12.763 8.79628 12.7559 8.69472 12.6928 8.61753C12.6015 8.50514 12.4331 8.4981 12.2893 8.52626C12.205 8.54387 12.1173 8.57176 12.0788 8.64543C12.0122 8.7822 12.1595 8.97531 12.0577 9.09095ZM8.37032 14.9678C8.40553 14.8169 8.50357 14.6799 8.64061 14.6027C8.62653 14.487 8.47919 14.4275 8.37384 14.473C8.26876 14.5222 8.21242 14.6414 8.2089 14.7571C8.20186 14.873 8.24059 14.9818 8.27905 15.0905C8.3213 15.2134 8.3668 15.3361 8.40905 15.4588C8.42313 15.501 8.44399 15.5501 8.48272 15.5712C8.55638 15.6026 8.63005 15.536 8.68259 15.4764C8.79851 15.3361 8.91767 15.1923 9.03684 15.052C9.08261 14.9921 9.13515 14.9255 9.12107 14.8483C9.10726 14.7538 8.98782 14.708 8.88951 14.7292C8.79499 14.7503 8.7178 14.8169 8.64061 14.873C8.56342 14.9326 8.46863 14.9818 8.37032 14.9678ZM9.96661 3.67401C9.8228 3.56189 9.62997 3.49174 9.46151 3.55485C9.33178 3.60035 9.23699 3.71978 9.21586 3.85303C9.64053 3.96516 10.0368 4.18968 10.3561 4.49491C10.3666 4.17939 10.2193 3.8636 9.96661 3.67401ZM12.8857 17.1675C12.9628 17.2866 13.1454 17.2902 13.2645 17.2095C13.384 17.1323 13.4506 16.999 13.5102 16.8693C13.3664 16.9148 13.2331 16.9885 13.1207 17.0868C13.1278 16.9148 13.2892 16.7956 13.4295 16.6938C13.7277 16.4693 13.9874 16.1887 14.1838 15.8729C13.9349 15.9043 13.7277 16.0728 13.5348 16.2342C13.4471 16.3078 13.3629 16.378 13.2786 16.4517C13.1944 16.5183 13.1067 16.6025 13.0996 16.7079C13.0893 16.8799 13.0121 17.0483 12.8857 17.1675ZM8.61244 10.4383C8.65442 10.3506 8.70019 10.2417 8.64061 10.1645C8.16692 10.6488 8.07917 11.3752 8.01607 12.0452C7.99494 12.2627 7.97382 12.4872 8.05453 12.6871C8.10734 12.3959 8.15636 12.1013 8.2089 11.8101C8.24059 11.6138 8.27553 11.4207 8.32482 11.2278C8.39144 10.954 8.48976 10.691 8.61244 10.4383ZM14.8048 8.92276C14.7311 8.76487 14.5172 8.74726 14.3452 8.75431C14.2962 8.75783 14.2436 8.75783 14.1978 8.77895C14.0399 8.85939 14.0857 9.09095 14.0575 9.26645C14.3208 9.18574 14.6293 9.26997 14.8153 9.47337C14.8224 9.35772 14.8294 9.23856 14.8329 9.12264C14.8365 9.05249 14.8365 8.98235 14.8048 8.92276ZM14.7032 10.6664C14.6997 10.7471 14.6821 10.8313 14.6997 10.912C14.7135 10.9963 14.7698 11.077 14.8505 11.0873C14.8435 10.9787 14.8365 10.8698 14.8259 10.7577C14.8855 10.7682 14.9242 10.8208 14.9521 10.8768C14.9768 10.9294 14.9979 10.9892 15.0469 11.0242C15.0994 11.0558 15.1837 11.0382 15.1907 10.9822C15.2294 10.677 15.2294 10.3717 15.1872 10.0665C15.0786 10.1014 15.0575 10.2452 15.0575 10.3612C15.0539 10.4768 15.0258 10.6206 14.9137 10.6453C14.8679 10.4313 14.8996 10.2033 15.0049 10.0137C14.8679 9.99635 14.7522 10.1226 14.7205 10.2558C14.6891 10.3891 14.71 10.5296 14.7032 10.6664ZM13.8049 13.9118C13.9102 13.5995 14.0153 13.2872 14.1207 12.9715C14.1767 12.8065 14.233 12.6381 14.3102 12.4802C14.4012 12.3014 14.5136 12.1294 14.5803 11.9398C14.5348 11.8979 14.4646 11.9504 14.4259 11.9994C14.0085 12.5433 13.7873 13.2309 13.8049 13.9118ZM15.3521 9.14376C15.2855 9.08066 15.1696 9.07362 15.0889 9.11912C15.0049 9.16814 14.9592 9.26645 14.9592 9.36124C14.9627 9.48745 15.0399 9.59985 15.117 9.70141C15.1942 9.80676 15.2714 9.9086 15.3486 10.0102C15.3941 9.82789 15.4258 9.63831 15.4328 9.44547C15.4399 9.34012 15.4328 9.21743 15.3521 9.14376ZM13.5909 5.60018C13.6716 5.56849 13.7488 5.53003 13.8189 5.48453C13.6296 5.36862 13.3945 5.33016 13.1768 5.37566C13.3174 5.51947 13.4612 5.66328 13.6015 5.8071C13.6998 5.90541 13.8577 5.91597 13.9874 5.86695C14.1171 5.81766 14.219 5.72287 14.3208 5.62835C14.1277 5.46693 13.8013 5.73695 13.5909 5.60018ZM10.8157 16.5253C10.8298 16.4833 10.7772 16.4446 10.735 16.4481C10.6895 16.4517 10.6472 16.4763 10.6017 16.4833C10.5104 16.5045 10.4089 16.4378 10.3878 16.3466C10.3596 16.2307 10.1808 16.2236 10.1001 16.3114C10.0194 16.3991 10.0159 16.5288 10.0159 16.6483C10.2754 16.778 10.6088 16.7255 10.8157 16.5253ZM13.6857 12.0417C13.7805 12.1083 13.9137 11.9786 13.8856 11.8662C13.8542 11.7576 13.7312 11.6977 13.6191 11.6874C13.5419 11.6804 13.4541 11.6839 13.4048 11.6276C13.3382 11.5469 13.3805 11.3855 13.2786 11.3576C13.261 11.5049 13.2155 11.6522 13.1454 11.7855C13.254 11.7855 13.3664 11.7855 13.4682 11.8207C13.5698 11.8556 13.6646 11.9328 13.6857 12.0417ZM13.261 16.0657C13.3523 15.9921 13.4295 15.8623 13.3664 15.7675C13.3347 15.722 13.2822 15.7009 13.2296 15.6939C13.0086 15.673 12.8613 15.9149 12.77 16.1221C12.7383 16.1957 12.7069 16.2694 12.6752 16.3431C12.8472 16.1992 13.0192 16.0587 13.1909 15.9149C13.2014 15.9712 13.2261 16.0237 13.261 16.0657ZM11.7419 16.7815C11.6471 16.7991 11.6157 16.943 11.6788 17.0201C11.7384 17.0973 11.8508 17.1185 11.9488 17.1044C12.1208 17.0832 12.2822 16.9711 12.3594 16.8167C12.2646 16.7815 12.156 16.7886 12.0683 16.8376C11.97 16.8939 11.8543 16.7569 11.7419 16.7815ZM13.0752 11.8873C13.0996 11.7224 13.1207 11.5574 13.1454 11.3925C13.0435 11.4908 12.9385 11.6032 12.9173 11.7435C12.8962 11.8838 13.0016 12.0487 13.1419 12.0311C13.2331 12.0206 13.3103 12.0942 13.384 12.1435C13.4612 12.1925 13.5874 12.2066 13.6226 12.1224C13.4788 11.9786 13.2786 11.8943 13.0752 11.8873ZM10.3737 8.83501C10.2263 8.82797 10.0755 8.82093 9.92815 8.81741C10.086 8.94714 10.2475 9.07714 10.4054 9.20687C10.472 8.96474 10.5351 8.7191 10.5947 8.4702C10.4614 8.54035 10.3737 8.68416 10.3737 8.83501ZM10.8368 16.6832C10.8016 16.7639 10.8403 16.8622 10.914 16.9113C10.9841 16.9641 11.0754 16.9746 11.1632 16.9641C11.3175 16.9465 11.4613 16.8693 11.5597 16.7534C11.5244 16.6938 11.4402 16.6903 11.3736 16.7114C11.307 16.729 11.2368 16.7639 11.1702 16.7498C11.1068 16.736 11.0613 16.6867 11.0017 16.6553C10.9457 16.6236 10.8579 16.6236 10.8368 16.6832ZM8.13524 14.3852C8.28257 14.3432 8.42638 14.301 8.57047 14.259C8.59132 14.252 8.61597 14.2449 8.63357 14.2308C8.67555 14.1924 8.65794 14.1152 8.61244 14.0835C8.56694 14.0521 8.50005 14.0591 8.44751 14.08C8.32834 14.1328 8.16692 14.0694 8.11763 13.9432C8.08269 14.0905 8.08974 14.2449 8.13524 14.3852ZM13.7033 11.3822C13.8856 11.34 14.0892 11.4136 14.2049 11.561C14.2295 11.5962 14.2609 11.6417 14.3067 11.6381C14.3593 11.6381 14.3874 11.575 14.398 11.526C14.3138 11.3716 14.1383 11.2768 13.9628 11.2909C13.8401 11.298 13.8891 11.0382 13.7699 11.0066C13.7488 11.1295 13.7242 11.2557 13.7033 11.3822ZM14.1943 11.6942C14.0188 11.561 13.8049 11.4802 13.5839 11.4697C13.6261 11.3259 13.6716 11.1821 13.7136 11.0347C13.6751 10.9716 13.5803 11.0453 13.5489 11.1119C13.5102 11.1926 13.4717 11.2768 13.4753 11.3646C13.482 11.4523 13.5489 11.5469 13.6364 11.5433C13.8013 11.5398 13.9592 11.6628 13.998 11.8207C14.0611 11.7784 14.1277 11.7365 14.1943 11.6942ZM14.103 5.4003C14.2436 5.43876 14.3909 5.47749 14.5348 5.45285C14.6293 5.43524 14.7205 5.38974 14.7734 5.30903C14.5803 5.14762 14.2469 5.1896 14.103 5.4003ZM12.426 17.1358C12.6541 17.164 12.8892 16.999 12.9385 16.7745C12.8648 16.8203 12.7735 16.827 12.6858 16.8341C12.6015 16.8411 12.5068 16.8517 12.4437 16.9077C12.377 16.9676 12.3594 17.0832 12.426 17.1358ZM14.1207 11.1715C14.0329 11.0488 14.1664 10.8874 14.1629 10.7365C14.1629 10.691 14.1453 10.6453 14.1066 10.6241C13.9768 10.7961 13.9452 11.0277 14.0188 11.2278C14.054 11.2102 14.0857 11.1926 14.1207 11.1715ZM12.9875 15.1327C12.9488 15.143 12.9103 15.15 12.8716 15.1571C12.8786 15.059 12.8578 14.9572 12.812 14.8695C12.7944 14.8941 12.7909 14.9255 12.7876 14.9572C12.7841 15.0379 12.7876 15.1257 12.8225 15.1958C12.8578 15.2695 12.9349 15.3291 13.0192 15.3185C13.0996 15.3115 13.1665 15.2167 13.1278 15.143C13.0893 15.1116 13.033 15.101 12.984 15.1186M12.8366 16.5253C13.0086 16.4202 13.1803 16.3184 13.3558 16.2166C13.1383 16.1781 12.9068 16.3149 12.8366 16.5253ZM8.33186 13.8378C8.29313 13.7642 8.21242 13.7116 8.12819 13.7081C8.12467 13.8276 8.20538 13.9467 8.3213 13.9887C8.37736 13.9749 8.36328 13.8871 8.33538 13.8378M12.8927 15.5923C12.8962 15.6202 12.9033 15.6484 12.9068 15.6763C12.9488 15.6484 12.991 15.6167 13.033 15.5888C13.0752 15.5151 12.984 15.4309 12.9068 15.3992C12.8997 15.4623 12.8962 15.5289 12.8927 15.5923Z" fill="#050505"/>
</g>
<path d="M13.4111 9.05429C13.478 9.04021 13.5482 9.08246 13.5726 9.14556C13.4954 9.15964 13.4182 9.16668 13.341 9.15964C13.3131 9.11387 13.3586 9.04373 13.4111 9.05429Z" fill="#050505"/>
<path d="M9.45429 9.34253C9.57021 9.48282 9.68585 9.62338 9.80177 9.76368C9.82262 9.79157 9.82262 9.83382 9.79825 9.86172C9.68937 9.8127 9.57725 9.76015 9.50006 9.6724C9.41935 9.58113 9.38767 9.44084 9.45429 9.34253Z" fill="#050505"/>
<path d="M9.15356 15.9908C9.45879 15.9383 9.75346 15.8156 10.0026 15.6295C10.0411 15.6016 10.1045 15.6049 10.1394 15.6401C10.0132 15.7909 9.88319 15.9488 9.70444 16.0366C9.52894 16.1243 9.29738 16.1278 9.15356 15.9908Z" fill="#050505"/>
<path d="M11.4532 9.24042C11.418 9.48227 11.3619 9.71736 11.2882 9.94892C11.2601 10.0261 11.2251 10.1139 11.1479 10.1455C11.2216 9.72792 11.3094 9.31409 11.4042 8.9035C11.4813 8.99477 11.4708 9.1245 11.4532 9.24042Z" fill="#050505"/>
<path d="M12.3943 12.9795C12.2572 12.8287 12.0714 12.7198 11.8716 12.6743C11.7627 12.6497 11.6468 12.6426 11.5487 12.5936C11.4469 12.5443 11.3627 12.4427 11.3803 12.3339C11.8117 12.3655 12.2223 12.583 12.4888 12.9199C12.4679 12.9514 12.4327 12.9725 12.3943 12.9795Z" fill="#050505"/>
<path d="M9.9995 6.34583C10.0347 6.4547 10.0873 6.57739 10.0312 6.67922C9.84865 6.46174 9.75738 6.1706 9.78555 5.88622C9.81344 5.60212 9.96078 5.3321 10.182 5.15308C10.2557 5.20562 10.1994 5.31801 10.1468 5.39168C9.954 5.6617 9.89767 6.02651 9.9995 6.34583Z" fill="#050505"/>
<path d="M9.916 6.86163C9.94065 6.89657 9.96502 6.93178 9.98967 6.96672C9.75106 7.34561 9.59317 7.7738 9.53006 8.21932C9.50542 8.39834 9.48104 8.60174 9.33371 8.71034C8.93369 9.00176 8.58269 9.36657 8.30915 9.77715C8.24956 9.70349 8.28802 9.59461 8.32675 9.50686C8.58973 8.92105 8.84946 8.33497 9.11271 7.74563C9.13356 7.79818 9.15469 7.84747 9.17933 7.90001C9.40033 7.53872 9.6495 7.19124 9.916 6.86163Z" fill="#050505"/>
<path d="M13.4029 2.0649C13.5362 1.83685 13.673 1.61233 13.8062 1.38429C13.7748 1.63698 13.7396 1.88615 13.7082 2.13504C13.9747 1.97362 14.1957 1.73177 14.3324 1.4474C14.3712 1.69304 14.2764 1.95629 14.0906 2.11771C14.2309 2.07546 14.3641 1.99827 14.473 1.89996C14.4237 2.09658 14.2834 2.26856 14.1009 2.35604C14.5431 2.29294 15.0447 2.24744 15.3992 2.52802C14.8868 2.4614 14.3606 2.4966 13.8625 2.62985C14.0169 2.75606 14.0976 2.96298 14.0695 3.1596C13.7818 2.70352 13.2765 2.39477 12.7397 2.34927C12.8835 2.479 12.9677 2.67183 12.9712 2.86494C12.1116 1.89292 11.0591 1.09315 9.89429 0.528187C9.95414 0.426624 10.105 0.458041 10.2136 0.507333C10.7891 0.770312 11.3294 1.10371 11.8205 1.50373C11.8205 1.40894 11.8205 1.31767 11.8205 1.22287C11.9469 1.39133 12.0731 1.55627 12.1993 1.72121C12.2346 1.59473 12.2381 1.46148 12.2099 1.33175C12.3293 1.44387 12.396 1.60529 12.396 1.77023C12.5327 1.70712 12.4975 1.50373 12.4344 1.36669C12.3713 1.22992 12.3117 1.0406 12.4344 0.949333C12.5574 1.25808 12.6836 1.56683 12.8098 1.87558C12.8835 1.47908 12.8905 1.07202 12.8345 0.671999C13.0836 1.05794 13.1993 1.52458 13.1608 1.98067C13.2694 1.84037 13.3501 1.67896 13.3959 1.50698C13.3994 1.69304 13.3994 1.8791 13.4029 2.0649Z" fill="#050505"/>
<mask id="mask1_528_4422" style="mask-type:luminance" maskUnits="userSpaceOnUse" x="3" y="4" width="6" height="8">
<path d="M3.06885 4.41846H8.30324V11.3518H3.06885V4.41846Z" fill="white"/>
</mask>
<g mask="url(#mask1_528_4422)">
<path d="M6.34241 7.16071C6.30368 7.37115 6.22649 7.57102 6.11789 7.75356C6.34241 7.43425 6.60187 7.13959 6.88625 6.87281C6.84752 6.99225 6.80554 7.11142 6.76329 7.23438C6.89681 7.10086 7.03006 6.96761 7.16331 6.83436C7.14922 6.92563 7.13866 7.02015 7.1281 7.11494C7.30712 6.97465 7.48614 6.83436 7.66489 6.69406C7.66489 6.77829 7.66164 6.86252 7.66164 6.94648C7.84391 6.77125 8.06139 6.63773 8.3 6.55377C7.95631 6.98169 7.61235 7.40961 7.27218 7.83427C7.32472 7.61327 7.39839 7.39931 7.49318 7.19213C7.03006 7.66229 6.6582 8.22021 6.39847 8.83067C6.45454 8.44473 6.56693 8.06936 6.72483 7.71483C6.24058 8.36754 6.01254 9.17084 5.79506 9.95327C5.79506 9.54296 5.8476 9.13238 5.95647 8.73588C5.64772 9.34281 5.43729 9.99552 5.33545 10.6691C5.26531 10.4689 5.23362 10.2515 5.25122 10.041C5.19516 10.4164 5.14235 10.7883 5.08981 11.1636C5.05135 10.8584 5.01262 10.5532 4.97768 10.2479C4.91431 10.5989 4.87937 10.9602 4.87585 11.318C4.76697 11.1181 4.71795 10.8901 4.73204 10.662C4.71091 10.8305 4.65485 10.9954 4.5671 11.1463C4.5847 10.7322 4.53893 10.3146 4.43385 9.91481C4.40568 10.3008 4.38104 10.6832 4.35314 11.0691C4.22666 10.613 4.16708 10.1429 4.1706 9.67269C4.10749 10.0481 4.04791 10.427 3.98806 10.8059C3.93551 10.3953 3.92495 9.97792 3.95664 9.56734C3.90058 9.84115 3.84776 10.1147 3.79522 10.3918C3.67606 9.85496 3.60916 9.3114 3.59535 8.76404C3.51816 9.0235 3.47591 9.29731 3.47239 9.56734C3.40576 9.56029 3.3776 9.48311 3.36731 9.41648C3.23026 8.65517 3.25843 7.86217 3.44801 7.1079C3.29364 7.38171 3.16716 7.66581 3.06885 7.96048C3.09701 7.09381 3.37435 6.23798 3.85833 5.51513C3.78818 5.54681 3.71804 5.57823 3.64789 5.60992C3.82339 5.28004 4.03031 4.97129 4.26539 4.68015C4.38808 4.53281 4.61612 4.38196 4.74612 4.52577C4.63372 4.64494 4.51808 4.76086 4.39512 4.87298C4.56006 4.72213 4.79514 4.64846 5.01614 4.68015C4.74964 4.79254 4.51456 4.98186 4.34962 5.22046C4.51456 5.07313 4.73204 4.98186 4.95304 4.96777C4.72147 5.09425 4.52485 5.29413 4.40216 5.52921C4.60204 5.34667 4.86176 5.23454 5.12854 5.20638C4.82331 5.41329 4.49343 5.6519 4.3916 6.00642C4.62668 5.72204 4.96008 5.51865 5.32137 5.44146C5.13558 5.58879 4.95656 5.74317 4.7881 5.91163C4.98797 5.845 5.18812 5.77838 5.38799 5.715C5.06868 5.91867 4.8057 6.20277 4.62316 6.53265C4.92487 6.26588 5.24418 6.0205 5.57758 5.79571C5.46518 5.93627 5.34954 6.07656 5.23714 6.22038C5.44406 6.04136 5.73547 5.96769 6.00197 6.02375C5.62308 6.14319 5.2932 6.42025 5.10741 6.77477C5.38447 6.53617 5.70731 6.35715 6.05479 6.25179C5.85112 6.41321 5.67562 6.60983 5.53885 6.83436C5.8021 6.59927 6.12141 6.42729 6.46158 6.33602C6.12493 6.62744 5.78449 6.91859 5.44758 7.20973C5.79506 7.04479 6.14579 6.87986 6.49679 6.7114C5.86872 7.37819 5.20924 8.10429 5.06868 9.00942C5.42672 8.34994 5.85112 7.72892 6.34241 7.16071Z" fill="#050505"/>
</g>
</g>
</g>
<defs>
<clipPath id="clip0_528_4422">
<rect width="20" height="20" fill="white"/>
</clipPath>
<clipPath id="clip1_528_4422">
<rect width="16.25" height="19.5" fill="white" transform="translate(1.875 0.25)"/>
</clipPath>
</defs>
</svg>
